<svg width="62.216" height="70" viewBox="0 0 7.168 8.064" xmlns="http://www.w3.org/2000/svg" preserveAspectRatio="xMinYMin meet"><path d="M7.156 2.372c0 -0.135 -0.029 -0.255 -0.087 -0.357 -0.057 -0.101 -0.144 -0.185 -0.259 -0.252 -0.953 -0.549 -1.906 -1.097 -2.859 -1.647 -0.257 -0.148 -0.506 -0.143 -0.761 0.008C2.811 0.347 0.913 1.435 0.347 1.762 0.114 1.897 0 2.104 0 2.372 0 3.477 0 4.581 0 5.686c0 0.132 0.028 0.249 0.084 0.35 0.057 0.104 0.145 0.191 0.263 0.259 0.566 0.328 2.465 1.415 2.844 1.639 0.255 0.15 0.504 0.156 0.761 0.008 0.952 -0.55 1.906 -1.098 2.859 -1.647 0.118 -0.068 0.205 -0.155 0.263 -0.259 0.056 -0.101 0.084 -0.218 0.084 -0.351 0 0 0 -2.209 0 -3.314" fill="#5C8DBC"/><path d="M3.589 4.018 0.084 6.037c0.057 0.104 0.145 0.191 0.263 0.259 0.566 0.328 2.465 1.415 2.844 1.639 0.255 0.15 0.504 0.156 0.761 0.008 0.952 -0.55 1.906 -1.098 2.859 -1.647 0.118 -0.068 0.205 -0.155 0.263 -0.259l-3.484 -2.018" fill="#1A4674"/><path d="M2.551 4.616c0.204 0.356 0.587 0.596 1.027 0.596 0.443 0 0.828 -0.243 1.031 -0.603l-1.02 -0.591 -1.038 0.598" fill="#1A4674"/><path d="M7.156 2.372c0 -0.135 -0.029 -0.255 -0.087 -0.357l-3.479 2.003 3.484 2.018c0.056 -0.101 0.084 -0.218 0.084 -0.351 0 0 0 -2.209 0 -3.314" fill="#1B598E"/><path d="M6.964 4.163h-0.272v0.272h-0.272v-0.272h-0.272v-0.272h0.272v-0.272h0.272v0.272h0.272v0.272m-0.993 0h-0.272v0.272h-0.272v-0.272h-0.272v-0.272h0.272v-0.272h0.272v0.272h0.272v0.272" fill="#FFF"/><path d="M4.609 4.609c-0.203 0.36 -0.589 0.603 -1.031 0.603 -0.44 0 -0.823 -0.24 -1.027 -0.596a1.178 1.178 0 0 1 -0.156 -0.587c0 -0.654 0.53 -1.183 1.183 -1.183 0.437 0 0.818 0.237 1.023 0.59l1.034 -0.596c-0.411 -0.71 -1.179 -1.187 -2.058 -1.187 -1.313 0 -2.377 1.064 -2.377 2.376 0 0.431 0.115 0.834 0.315 1.183 0.41 0.713 1.18 1.194 2.062 1.194 0.884 0 1.654 -0.482 2.064 -1.198l-1.033 -0.598" fill="#FFF"/></svg>