<svg xmlns="http://www.w3.org/2000/svg" width="39" height="39" viewBox="0 0 39 39" fill="none">
  <path fill-rule="evenodd" clip-rule="evenodd" d="M34.2351 0C36.865 0 39 2.1351 39 4.76486V34.2351C39 36.8649 36.8649 39 34.2351 39H4.76486C2.1351 39 0 36.8649 0 34.2351V4.76486C0 2.1351 2.13502 0 4.76486 0L34.2351 0ZM12.2226 32.2419V15.0486H6.50668V32.2419H12.2226ZM32.8301 32.2419V22.3823C32.8301 17.101 30.0103 14.6443 26.2503 14.6443C23.2183 14.6443 21.8602 16.3118 21.0998 17.4829V15.0486H15.3853C15.4611 16.662 15.3853 32.2419 15.3853 32.2419H21.0997V22.64C21.0997 22.1259 21.1367 21.6122 21.2881 21.2449C21.7005 20.2185 22.6415 19.1552 24.2203 19.1552C26.2872 19.1552 27.1154 20.7325 27.1154 23.0428V32.2419H32.8301ZM9.40326 6.75812C7.44763 6.75812 6.16992 8.04383 6.16992 9.72898C6.16992 11.3787 7.40878 12.6998 9.32763 12.6998H9.36449C11.3575 12.6998 12.5981 11.3787 12.5981 9.72898C12.5612 8.04619 11.361 6.76178 9.40326 6.75812Z" fill="black"/>
</svg>