<svg xmlns="http://www.w3.org/2000/svg" width="27" height="60" viewBox="0 0 27 60" fill="none">
  <g clip-path="url(#clip0_1_326)">
    <path d="M26.4589 23.8875C23.2989 9.9375 15.8289 5.35252 15.0264 3.60002C14.3264 2.61502 13.7014 1.21502 13.1889 1.52588e-05C13.0989 1.23752 13.0514 1.71249 11.8814 2.95999C10.0739 4.37499 0.786443 12.165 0.0314429 28.01C-0.673557 42.79 10.7064 51.5975 12.2514 52.72L12.4264 52.845C12.7489 55.225 13.0239 57.61 13.2514 60H14.4539C14.7389 57.42 15.1639 54.86 15.7289 52.325C16.7714 51.585 17.2389 51.1675 17.8539 50.5925C23.7439 45.145 27.0489 37.455 26.9514 29.4325C26.9764 27.3975 26.6939 25.2775 26.4589 23.8875ZM13.1189 44.375C13.1189 44.375 13.1189 23.6475 13.8064 23.65C14.3389 23.65 15.0314 50.3875 15.0314 50.3875C14.0789 50.275 13.1189 45.9875 13.1189 44.375Z" fill="#47A248"/>
  </g>
  <defs>
    <clipPath id="clip0_1_326">
      <rect width="26.9535" height="60" fill="white"/>
    </clipPath>
  </defs>
</svg>