<svg width="62.007px" height="70px" viewBox="0 0 62.007 70" version="1.1" xmlns="http://www.w3.org/2000/svg" xmlns:xlink="http://www.w3.org/1999/xlink" preserveAspectRatio="xMidYMid"><g><path d="M31.003 69.871c-0.963 0 -1.861 -0.256 -2.696 -0.706l-8.537 -5.071c-1.284 -0.706 -0.642 -0.963 -0.256 -1.091 1.733 -0.578 2.054 -0.706 3.851 -1.733 0.193 -0.129 0.45 -0.064 0.642 0.064l6.548 3.916c0.256 0.129 0.578 0.129 0.77 0L56.936 50.421c0.256 -0.129 0.385 -0.385 0.385 -0.706V20.123c0 -0.321 -0.129 -0.578 -0.385 -0.706L31.324 4.653c-0.256 -0.129 -0.578 -0.129 -0.77 0L4.942 19.417c-0.256 0.129 -0.385 0.449 -0.385 0.706v29.592c0 0.256 0.129 0.578 0.385 0.706l6.997 4.043c3.787 1.926 6.162 -0.321 6.162 -2.567V22.691c0 -0.385 0.321 -0.77 0.771 -0.77h3.273c0.385 0 0.77 0.321 0.77 0.77v29.207c0 5.071 -2.761 8.024 -7.575 8.024 -1.476 0 -2.632 0 -5.905 -1.605l-6.74 -3.851A5.422 5.422 0 0 1 0 49.779V20.188a5.42 5.42 0 0 1 2.696 -4.687L28.308 0.674c1.605 -0.899 3.787 -0.899 5.392 0l25.611 14.828a5.42 5.42 0 0 1 2.696 4.687v29.592a5.416 5.416 0 0 1 -2.696 4.686L33.699 69.293c-0.835 0.385 -1.797 0.578 -2.696 0.578Zm7.895 -20.348c-11.233 0 -13.544 -5.135 -13.544 -9.5 0 -0.385 0.321 -0.77 0.77 -0.77h3.338c0.385 0 0.706 0.256 0.706 0.642 0.514 3.402 1.99 5.071 8.794 5.071 5.392 0 7.703 -1.22 7.703 -4.108 0 -1.67 -0.642 -2.888 -9.051 -3.723 -6.997 -0.706 -11.362 -2.246 -11.362 -7.83 0 -5.199 4.365 -8.281 11.682 -8.281 8.216 0 12.261 2.825 12.773 8.986 0 0.193 -0.064 0.385 -0.193 0.578 -0.129 0.129 -0.321 0.256 -0.514 0.256h-3.338a0.752 0.752 0 0 1 -0.706 -0.578c-0.77 -3.531 -2.76 -4.686 -8.024 -4.686 -5.905 0 -6.612 2.054 -6.612 3.595 0 1.862 0.835 2.44 8.794 3.466 7.895 1.027 11.618 2.503 11.618 8.024 -0.064 5.649 -4.686 8.858 -12.838 8.858Z" fill="#539E43"/></g></svg>