<svg height="80" viewBox="5.623 2.499 15.698 13.978" width="70.206" xmlns="http://www.w3.org/2000/svg"><g fill="#61dafb"><path d="M21.321 9.485c0 -1.039 -1.306 -2.029 -3.299 -2.64 0.463 -2.035 0.253 -3.658 -0.646 -4.17a1.432 1.432 0 0 0 -0.715 -0.183v0.715c0.147 0 0.266 0.027 0.366 0.083 0.435 0.253 0.625 1.201 0.478 2.422a9.786 9.786 0 0 1 -0.161 0.941 15.424 15.424 0 0 0 -2.029 -0.351 15.634 15.634 0 0 0 -1.334 -1.601C15.024 3.734 16 3.2 16.666 3.2v-0.702c-0.878 0 -2.029 0.625 -3.194 1.713 -1.166 -1.081 -2.317 -1.698 -3.194 -1.698v0.717c0.659 0 1.642 0.527 2.689 1.489a14.602 14.602 0 0 0 -1.32 1.594 15.333 15.333 0 0 0 -2.035 0.351 13.079 13.079 0 0 1 -0.169 -0.927c-0.147 -1.222 0.035 -2.169 0.471 -2.422a0.723 0.723 0 0 1 0.366 -0.083v-0.719a1.383 1.383 0 0 0 -0.723 0.183c-0.898 0.519 -1.102 2.134 -0.639 4.163 -1.994 0.618 -3.286 1.594 -3.286 2.633s1.306 2.029 3.299 2.64c-0.463 2.035 -0.253 3.658 0.646 4.17 0.21 0.119 0.449 0.183 0.723 0.183 0.878 0 2.029 -0.625 3.194 -1.713 1.166 1.081 2.317 1.698 3.194 1.698a1.383 1.383 0 0 0 0.723 -0.183c0.898 -0.519 1.102 -2.134 0.639 -4.163 1.986 -0.61 3.279 -1.594 3.279 -2.633zm-4.163 -2.134a14.217 14.217 0 0 1 -0.435 1.264c-0.134 -0.253 -0.266 -0.513 -0.422 -0.766a16.61 16.61 0 0 0 -0.463 -0.751 14.4 14.4 0 0 1 1.313 0.253zm-1.467 3.405a16.526 16.526 0 0 1 -0.771 1.222 16.485 16.485 0 0 1 -2.886 0A15.649 15.649 0 0 1 10.594 9.491a16.969 16.969 0 0 1 1.432 -2.499 16.485 16.485 0 0 1 2.886 0 15.649 15.649 0 0 1 1.439 2.486 20.022 20.022 0 0 1 -0.659 1.278zm1.032 -0.414c0.175 0.427 0.322 0.857 0.442 1.271 -0.422 0.105 -0.863 0.19 -1.32 0.253 0.154 -0.246 0.315 -0.498 0.463 -0.758 0.147 -0.253 0.288 -0.513 0.414 -0.771zm-3.243 3.419a14.834 14.834 0 0 1 -0.891 -1.025 18.086 18.086 0 0 0 1.769 0 13.073 13.073 0 0 1 -0.878 1.025zm-2.379 -1.881a14.497 14.497 0 0 1 -1.313 -0.253c0.119 -0.414 0.266 -0.835 0.435 -1.264 0.134 0.253 0.266 0.513 0.422 0.766s0.302 0.505 0.463 0.751zm2.366 -6.663c0.295 0.309 0.597 0.653 0.891 1.025a18.086 18.086 0 0 0 -1.769 0c0.288 -0.371 0.583 -0.715 0.878 -1.025zm-2.366 1.881c-0.154 0.246 -0.315 0.498 -0.463 0.758a13.626 13.626 0 0 0 -0.414 0.766 12.469 12.469 0 0 1 -0.442 -1.271 17.636 17.636 0 0 1 1.32 -0.253zM8.207 11.106c-1.13 -0.485 -1.867 -1.115 -1.867 -1.622s0.73 -1.137 1.867 -1.622c0.274 -0.119 0.576 -0.225 0.885 -0.322a15.247 15.247 0 0 0 0.723 1.952 14.546 14.546 0 0 0 -0.71 1.938 12.118 12.118 0 0 1 -0.898 -0.322zm1.713 4.57c-0.435 -0.253 -0.625 -1.201 -0.478 -2.422 0.035 -0.302 0.091 -0.618 0.161 -0.941a15.4 15.4 0 0 0 2.029 0.351 15.602 15.602 0 0 0 1.335 1.601c-1.046 0.969 -2.022 1.503 -2.689 1.503a0.801 0.801 0 0 1 -0.366 -0.083zm7.59 -2.435c0.147 1.222 -0.035 2.169 -0.471 2.422a0.723 0.723 0 0 1 -0.366 0.083c-0.659 0 -1.642 -0.527 -2.689 -1.489a14.602 14.602 0 0 0 1.32 -1.594 15.306 15.306 0 0 0 2.035 -0.351c0.07 0.322 0.134 0.632 0.169 0.934zm1.229 -2.134a9.288 9.288 0 0 1 -0.885 0.322 15.234 15.234 0 0 0 -0.723 -1.952c0.295 -0.666 0.534 -1.313 0.71 -1.938 0.315 0.098 0.618 0.21 0.898 0.322 1.13 0.485 1.867 1.115 1.867 1.622s-0.737 1.137 -1.867 1.622z"/><path d="M14.933 9.485a1.459 1.459 0 0 1 -1.467 1.467 1.459 1.459 0 0 1 -1.459 -1.467 1.459 1.459 0 0 1 2.927 0z"/></g></svg>