<svg xmlns="http://www.w3.org/2000/svg" width="66" height="53" viewBox="0 0 66 53" fill="none">
  <g clip-path="url(#clip0_2_12)">
    <path d="M6.58226 53C4.77214 53 3.2226 52.3513 1.93355 51.0539C0.644575 49.7565 7.62939e-06 48.1969 7.62939e-06 46.375V6.625C7.62939e-06 4.80313 0.644575 3.24352 1.93355 1.94609C3.2226 0.64867 4.77214 0 6.58226 0H59.2403C61.0504 0 62.6001 0.64867 63.889 1.94609C65.1781 3.24352 65.8226 4.80313 65.8226 6.625V46.375C65.8226 48.1969 65.1781 49.7565 63.889 51.0539C62.6001 52.3513 61.0504 53 59.2403 53H6.58226ZM32.9113 29.8125L6.58226 13.25V46.375H59.2403V13.25L32.9113 29.8125ZM32.9113 23.1875L59.2403 6.625H6.58226L32.9113 23.1875ZM6.58226 13.25V6.625V46.375V13.25Z" fill="#249280"/>
  </g>
  <defs>
    <clipPath id="clip0_2_12">
      <rect width="65.8226" height="53" fill="white"/>
    </clipPath>
  </defs>
</svg>