<svg xmlns="http://www.w3.org/2000/svg" width="39" height="39" viewBox="0 0 39 39" fill="none">
  <g clip-path="url(#clip0_1_214)">
    <path fill-rule="evenodd" clip-rule="evenodd" d="M22.557 26.9781C26.3568 26.5294 30.3983 25.1478 30.3983 18.5846C30.3983 16.7191 29.7414 15.1989 28.6715 14.0242C28.8441 13.5756 29.3962 11.8827 28.4632 9.53413C28.4632 9.53413 27.0815 9.08487 23.8351 11.2609C22.4534 10.8813 20.9337 10.6391 19.5175 10.6391C18.0662 10.6391 16.546 10.8813 15.1988 11.2609C11.9172 9.08487 10.5356 9.53413 10.5356 9.53413C9.60314 11.8827 10.156 13.5756 10.3285 14.0242C9.25747 15.1988 8.60118 16.7191 8.60118 18.5846C8.60118 25.1478 12.6426 26.5294 16.4425 26.9781C15.9592 27.3934 15.51 28.1872 15.3374 29.2927C14.3699 29.707 11.8482 30.5018 10.3285 27.8765C10.3285 27.8765 9.43008 26.2533 7.73777 26.1498C7.73777 26.1498 6.04492 26.1153 7.59967 27.1851C7.59967 27.1851 8.7392 27.704 9.49962 29.6724C9.49962 29.6724 10.5356 32.9545 15.3023 31.9179V34.8538C15.3023 35.3037 14.9573 35.8214 14.0939 35.6833C7.32309 33.4377 2.45273 27.0125 2.45273 19.4825C2.45273 10.0519 10.0864 2.4183 19.5175 2.4183C28.9131 2.4183 36.5818 10.0519 36.5473 19.4825C36.5473 27.0125 31.6764 33.4032 24.9061 35.6833C24.0421 35.8559 23.697 35.3383 23.697 34.8538V30.1222C23.6971 28.5322 23.1782 27.4969 22.557 26.9781ZM39 19.5175C39 8.7392 30.2603 0 19.5175 0C8.7392 0 0 8.7392 0 19.5175C0 30.2603 8.7392 39 19.5175 39C30.2603 39 39 30.2603 39 19.5175Z" fill="black"/>
  </g>
  <defs>
    <clipPath id="clip0_1_214">
      <rect width="39" height="39" fill="white"/>
    </clipPath>
  </defs>
</svg>