<svg xmlns="http://www.w3.org/2000/svg" width="60" height="60" viewBox="0 0 60 60" fill="none">
  <path d="M0 60V0H60V60H0Z" fill="#FFD600"/>
  <path d="M39.23 44.9117C40.3833 46.785 41.6367 48.58 44.2917 48.58C46.5217 48.58 47.6917 47.4717 47.6917 45.9383C47.6917 44.1033 46.4817 43.4517 44.0283 42.3833L42.6833 41.81C38.8017 40.1633 36.22 38.1 36.22 33.7417C36.22 29.725 39.295 26.6683 44.1 26.6683C47.5217 26.6683 49.98 27.8533 51.7533 30.9567L47.5633 33.635C46.6417 31.9883 45.645 31.34 44.1 31.34C42.5233 31.34 41.525 32.335 41.525 33.635C41.525 35.2417 42.525 35.8917 44.8333 36.8867L46.1783 37.46C50.7533 39.4083 53.3333 41.3983 53.3333 45.8717C53.3333 50.6917 49.5267 53.3333 44.4167 53.3333C39.4183 53.3333 36.58 50.825 35 47.72L39.23 44.9117ZM19.92 45.0483C20.7633 46.5583 22.045 47.72 23.8883 47.72C25.6517 47.72 26.6667 47.0233 26.6667 44.315V26.6667H32.2217V45.1683C32.2217 50.78 28.9667 53.3333 24.2133 53.3333C19.9183 53.3333 16.8183 50.4233 15.555 47.72L19.92 45.0483Z" fill="#000001"/>
</svg>