<svg xmlns="http://www.w3.org/2000/svg" width="42" height="53" viewBox="0 0 42 53" fill="none">
  <g clip-path="url(#clip0_2_8)">
    <path d="M21 26.5C22.4437 26.5 23.6797 25.981 24.7078 24.9431C25.736 23.9052 26.25 22.6575 26.25 21.2C26.25 19.7425 25.736 18.4947 24.7078 17.4569C23.6797 16.4189 22.4437 15.9 21 15.9C19.5562 15.9 18.3203 16.4189 17.2922 17.4569C16.264 18.4947 15.75 19.7425 15.75 21.2C15.75 22.6575 16.264 23.9052 17.2922 24.9431C18.3203 25.981 19.5562 26.5 21 26.5ZM21 45.9775C26.3375 41.0308 30.2969 36.5369 32.8781 32.4956C35.4594 28.4544 36.75 24.8658 36.75 21.73C36.75 16.9158 35.2297 12.9739 32.1891 9.90437C29.1485 6.83475 25.4187 5.3 21 5.3C16.5813 5.3 12.8515 6.83475 9.81094 9.90437C6.77033 12.9739 5.25 16.9158 5.25 21.73C5.25 24.8658 6.54065 28.4544 9.12187 32.4956C11.7031 36.5369 15.6625 41.0308 21 45.9775ZM21 53C13.9563 46.9491 8.69531 41.3289 5.21719 36.1394C1.73906 30.9497 0 26.1466 0 21.73C0 15.105 2.11096 9.82706 6.33281 5.89625C10.5547 1.96537 15.4437 0 21 0C26.5563 0 31.4453 1.96537 35.6672 5.89625C39.889 9.82706 42 15.105 42 21.73C42 26.1466 40.2609 30.9497 36.7828 36.1394C33.3047 41.3289 28.0437 46.9491 21 53Z" fill="#249280"/>
  </g>
  <defs>
    <clipPath id="clip0_2_8">
      <rect width="42" height="53" fill="white"/>
    </clipPath>
  </defs>
</svg>