<svg xmlns="http://www.w3.org/2000/svg" width="70" height="70" viewBox="0 0 29.456 29.456"><path fill="#f0db4f" d="M0 0h29.456v29.456H0z"/><path d="M27.045 22.431c-0.216 -1.344 -1.092 -2.472 -3.688 -3.525 -0.902 -0.414 -1.907 -0.711 -2.206 -1.394 -0.106 -0.398 -0.12 -0.622 -0.053 -0.862 0.193 -0.781 1.126 -1.025 1.865 -0.801 0.476 0.16 0.927 0.526 1.198 1.112 1.271 -0.823 1.268 -0.818 2.156 -1.383 -0.325 -0.504 -0.498 -0.736 -0.711 -0.952 -0.764 -0.854 -1.806 -1.294 -3.472 -1.26 -0.288 0.036 -0.58 0.076 -0.868 0.112 -0.832 0.21 -1.624 0.647 -2.089 1.232 -1.394 1.582 -0.997 4.351 0.7 5.491 1.672 1.254 4.127 1.54 4.441 2.713 0.305 1.436 -1.056 1.901 -2.408 1.736 -0.997 -0.207 -1.551 -0.714 -2.15 -1.635 -1.103 0.638 -1.103 0.638 -2.237 1.291 0.269 0.588 0.552 0.854 1.002 1.364 2.134 2.164 7.473 2.058 8.431 -1.218 0.039 -0.112 0.297 -0.862 0.09 -2.019zm-11.032 -8.893h-2.755c0 2.38 -0.011 4.743 -0.011 7.123 0 1.515 0.078 2.904 -0.168 3.329 -0.403 0.837 -1.448 0.734 -1.924 0.571 -0.484 -0.238 -0.731 -0.577 -1.016 -1.056 -0.078 -0.137 -0.137 -0.244 -0.157 -0.252 -0.748 0.456 -1.492 0.916 -2.24 1.372 0.372 0.764 0.921 1.428 1.624 1.859 1.05 0.63 2.461 0.823 3.937 0.484 0.96 -0.28 1.789 -0.86 2.223 -1.742 0.627 -1.156 0.493 -2.556 0.487 -4.105 0.014 -2.526 0 -5.051 0 -7.585z" fill="#323330"/></svg>