<svg width="62.44" height="70" viewBox="0 0 7.168 8.036" xmlns="http://www.w3.org/2000/svg" preserveAspectRatio="xMinYMin meet"><path d="M0.223 2.026 3.632 0.041l3.409 1.985v3.966L3.632 7.977 0.223 5.992V2.026z" fill="#C00"/><path d="m3.727 4.008 3.17 -1.825 0.127 3.68 -3.297 1.991v-3.845z" fill="#FFF"/><path d="m6.945 2.071 -0.01 3.899 -3.307 1.918 -0.016 -3.833 3.332 -1.985zm-2.781 2.303 0.01 2.561 1.099 -0.64 -0.003 -1.931 0.554 -0.328v1.937l0.554 -0.325 0.003 -2.593 -2.217 1.319z" fill="#C00"/><path d="M3.848 0.07c-0.153 -0.086 -0.398 -0.086 -0.551 0L0.277 1.806C0.124 1.892 0.003 2.109 0.003 2.281v3.473c0 0.175 0.124 0.389 0.274 0.475l3.02 1.736c0.153 0.086 0.398 0.086 0.551 0l3.02 -1.736c0.153 -0.086 0.274 -0.303 0.274 -0.475V2.281c0 -0.175 -0.124 -0.389 -0.274 -0.475L3.848 0.07zm2.679 1.816c0.153 0.086 0.153 0.229 0 0.315l-2.644 1.52c-0.153 0.086 -0.398 0.086 -0.551 0L0.65 2.179c-0.153 -0.086 -0.153 -0.229 0 -0.315l2.644 -1.52c0.153 -0.086 0.398 -0.086 0.551 0l2.682 1.542zM0.239 2.533c0 -0.175 0.124 -0.245 0.274 -0.159l2.705 1.555c0.153 0.086 0.274 0.303 0.274 0.475v3.084c0 0.175 -0.124 0.245 -0.274 0.159l-2.705 -1.555c-0.153 -0.086 -0.274 -0.303 -0.274 -0.475V2.533zm3.769 5.065c-0.153 0.086 -0.274 0.016 -0.274 -0.159v-3.036c0 -0.175 0.124 -0.389 0.274 -0.475l2.625 -1.507c0.153 -0.086 0.274 -0.016 0.274 0.159v3.036c0 0.175 -0.124 0.389 -0.274 0.475l-2.625 1.507z" fill="#910505"/></svg>