<svg height="70" viewBox="4.92 2.187 13.736 12.231" width="61.43" xmlns="http://www.w3.org/2000/svg"><g fill="#61dafb"><path d="M18.656 8.299c0 -0.909 -1.143 -1.775 -2.887 -2.31 0.405 -1.781 0.221 -3.201 -0.565 -3.649a1.253 1.253 0 0 0 -0.626 -0.16v0.626c0.129 0 0.233 0.024 0.32 0.073 0.381 0.221 0.547 1.051 0.418 2.119a8.563 8.563 0 0 1 -0.141 0.823 13.496 13.496 0 0 0 -1.775 -0.307 13.68 13.68 0 0 0 -1.167 -1.401C13.146 3.267 14 2.8 14.583 2.8v-0.614c-0.768 0 -1.775 0.547 -2.795 1.499 -1.02 -0.946 -2.027 -1.486 -2.795 -1.486v0.627c0.577 0 1.437 0.461 2.353 1.303a12.777 12.777 0 0 0 -1.155 1.395 13.416 13.416 0 0 0 -1.781 0.307 11.444 11.444 0 0 1 -0.148 -0.811c-0.129 -1.069 0.031 -1.898 0.412 -2.119a0.633 0.633 0 0 1 0.32 -0.073v-0.629a1.21 1.21 0 0 0 -0.633 0.16c-0.786 0.454 -0.964 1.867 -0.559 3.643 -1.745 0.541 -2.875 1.395 -2.875 2.304s1.143 1.775 2.887 2.31c-0.405 1.781 -0.221 3.201 0.565 3.649 0.184 0.104 0.393 0.16 0.633 0.16 0.768 0 1.775 -0.547 2.795 -1.499 1.02 0.946 2.027 1.486 2.795 1.486a1.21 1.21 0 0 0 0.633 -0.16c0.786 -0.454 0.964 -1.867 0.559 -3.643 1.738 -0.534 2.869 -1.395 2.869 -2.304zm-3.643 -1.867a12.44 12.44 0 0 1 -0.381 1.106c-0.117 -0.221 -0.233 -0.449 -0.369 -0.67a14.534 14.534 0 0 0 -0.405 -0.657 12.6 12.6 0 0 1 1.149 0.221zm-1.284 2.979a14.46 14.46 0 0 1 -0.675 1.069 14.424 14.424 0 0 1 -2.525 0A13.693 13.693 0 0 1 9.27 8.305a14.848 14.848 0 0 1 1.253 -2.187 14.424 14.424 0 0 1 2.525 0 13.693 13.693 0 0 1 1.259 2.175 17.519 17.519 0 0 1 -0.577 1.118zm0.903 -0.362c0.153 0.374 0.282 0.75 0.387 1.112 -0.369 0.092 -0.755 0.166 -1.155 0.221 0.135 -0.215 0.276 -0.436 0.405 -0.663 0.129 -0.221 0.252 -0.449 0.362 -0.675zm-2.838 2.992a12.98 12.98 0 0 1 -0.78 -0.897 15.825 15.825 0 0 0 1.548 0 11.439 11.439 0 0 1 -0.768 0.897zm-2.082 -1.646a12.685 12.685 0 0 1 -1.149 -0.221c0.104 -0.362 0.233 -0.731 0.381 -1.106 0.117 0.221 0.233 0.449 0.369 0.67s0.264 0.442 0.405 0.657zm2.07 -5.83c0.258 0.27 0.522 0.571 0.78 0.897a15.825 15.825 0 0 0 -1.548 0c0.252 -0.325 0.51 -0.626 0.768 -0.897zm-2.07 1.646c-0.135 0.215 -0.276 0.436 -0.405 0.663a11.923 11.923 0 0 0 -0.362 0.67 10.91 10.91 0 0 1 -0.387 -1.112 15.431 15.431 0 0 1 1.155 -0.221zM7.181 9.718c-0.989 -0.424 -1.634 -0.976 -1.634 -1.419s0.639 -0.995 1.634 -1.419c0.24 -0.104 0.504 -0.197 0.774 -0.282a13.341 13.341 0 0 0 0.633 1.708 12.728 12.728 0 0 0 -0.621 1.696 10.603 10.603 0 0 1 -0.786 -0.282zm1.499 3.999c-0.381 -0.221 -0.547 -1.051 -0.418 -2.119 0.031 -0.264 0.08 -0.541 0.141 -0.823a13.475 13.475 0 0 0 1.775 0.307 13.652 13.652 0 0 0 1.168 1.401c-0.915 0.848 -1.769 1.315 -2.353 1.315a0.701 0.701 0 0 1 -0.32 -0.073zm6.641 -2.131c0.129 1.069 -0.031 1.898 -0.412 2.119a0.633 0.633 0 0 1 -0.32 0.073c-0.577 0 -1.437 -0.461 -2.353 -1.303a12.777 12.777 0 0 0 1.155 -1.395 13.393 13.393 0 0 0 1.781 -0.307c0.061 0.282 0.117 0.553 0.148 0.817zm1.075 -1.867a8.127 8.127 0 0 1 -0.774 0.282 13.33 13.33 0 0 0 -0.633 -1.708c0.258 -0.583 0.467 -1.149 0.621 -1.696 0.276 0.086 0.541 0.184 0.786 0.282 0.989 0.424 1.634 0.976 1.634 1.419s-0.645 0.995 -1.634 1.419z"/><path d="M13.066 8.299a1.277 1.277 0 0 1 -1.284 1.284 1.277 1.277 0 0 1 -1.277 -1.284 1.277 1.277 0 0 1 2.561 0z"/></g></svg>