<svg xmlns="http://www.w3.org/2000/svg" width="68" height="60" viewBox="0 0 68 60" fill="none">
  <g clip-path="url(#clip0_1_254)">
    <path d="M39.9438 30.0071C39.9438 33.4737 37.1368 36.2835 33.6702 36.2835C30.2035 36.2835 27.3937 33.4737 27.3937 30.0071C27.3937 26.5432 30.2007 23.7333 33.6674 23.7305C37.134 23.7305 39.9438 26.5404 39.9438 30.0071ZM47.3769 -7.62939e-06C43.5986 -7.62939e-06 38.6555 2.69471 33.6562 7.35998C28.6597 2.71998 23.7137 0.0561447 19.9382 0.0561447C18.7874 0.0561447 17.7403 0.317154 16.8337 0.836452C12.974 3.06242 12.1095 9.99862 14.1025 18.7032C5.5579 21.3418 0 25.5607 0 30.0071C0 34.4702 5.58596 38.7004 14.1558 41.3193C12.1796 50.0576 13.0611 57.0049 16.9291 59.228C17.8274 59.7529 18.866 60 20.0224 60C23.7979 60 28.7438 57.3052 33.7431 52.6344C38.7396 57.2772 43.6856 59.9411 47.4611 59.9411C48.6119 59.9411 49.659 59.6884 50.5656 59.1691C54.4225 56.9459 55.2898 50.0098 53.2968 41.3025C61.8105 38.6863 67.3684 34.459 67.3684 30.0071C67.3684 25.5439 61.7825 21.3137 53.2126 18.6891C55.1888 9.9593 54.3074 3.00631 50.4393 0.780343C49.5466 0.263852 48.5081 0.00279939 47.374 -7.62939e-06H47.3769ZM47.3628 3.05967V3.07646C47.9944 3.07646 48.5025 3.20001 48.9291 3.433C50.7986 4.50528 51.6099 8.5839 50.9783 13.8302C50.8267 15.1214 50.5796 16.4828 50.2765 17.8722C47.5817 17.2098 44.6456 16.7017 41.5551 16.3733C39.7025 13.833 37.7796 11.5256 35.8428 9.50456C40.3116 5.35017 44.508 3.07092 47.3656 3.0625L47.3628 3.05967ZM19.9382 3.11578C22.7789 3.11578 26.9951 5.38385 31.4751 9.51578C29.5495 11.5368 27.6295 13.8302 25.8049 16.3706C22.6975 16.699 19.7586 17.207 17.0667 17.8807C16.7523 16.5053 16.5193 15.1747 16.3537 13.8947C15.7081 8.65121 16.5052 4.57542 18.3579 3.4891C18.8912 3.23647 19.4807 3.13265 19.9382 3.11861V3.11578ZM33.6421 11.6772C34.9193 12.9909 36.1965 14.4618 37.4597 16.0674C36.2246 16.0113 34.9614 15.972 33.6842 15.972C32.393 15.972 31.1158 16 29.8667 16.0674C31.1018 14.4618 32.3789 12.9909 33.6421 11.6744V11.6772ZM33.6842 19.0484C35.7614 19.0484 37.8302 19.1439 39.8653 19.3095C41.0049 20.9432 42.1165 22.6863 43.186 24.5305C44.2302 26.327 45.1789 28.1516 46.0435 29.993C45.1789 31.8316 44.2302 33.6702 43.2 35.4666C42.1333 37.3193 41.0302 39.0821 39.8877 40.7158C37.8442 40.8926 35.7726 40.9909 33.6842 40.9909C31.607 40.9909 29.5383 40.8926 27.5032 40.7298C26.3635 39.0961 25.2519 37.3502 24.1825 35.5088C23.1383 33.7123 22.1895 31.8877 21.3249 30.0463C22.1754 28.2021 23.1382 26.3607 24.1684 24.5614C25.2351 22.7088 26.3382 20.9516 27.4807 19.3179C29.5242 19.1382 31.5958 19.0428 33.6842 19.0428V19.0484ZM23.4807 19.7614C22.807 20.8196 22.1333 21.9031 21.5045 23.0175C20.873 24.1123 20.2835 25.2126 19.7221 26.313C18.9782 24.4716 18.3467 22.6358 17.8246 20.8478C19.6211 20.4267 21.5158 20.0533 23.4807 19.7642V19.7614ZM43.8596 19.7614C45.8105 20.0505 47.6912 20.4071 49.4905 20.8478C48.9853 22.6218 48.3537 24.4463 47.6379 26.2737C47.0765 25.1789 46.487 24.0758 45.8414 22.9782C45.2098 21.8779 44.5362 20.8056 43.8625 19.7614H43.8596ZM52.4575 21.6562C53.8161 22.0772 55.1073 22.5459 56.3172 23.054C61.1789 25.1312 64.3228 27.8484 64.3228 30.0042C64.3088 32.16 61.165 34.8885 56.3032 36.9516C55.1242 37.4569 53.833 37.9116 52.4997 38.3354C51.7137 35.6463 50.6863 32.845 49.4119 29.9706C50.6751 27.1158 51.6856 24.3284 52.4575 21.6505V21.6562ZM14.8575 21.6674C15.6379 24.3621 16.6681 27.1607 17.9453 30.0322C16.6821 32.887 15.666 35.6744 14.8969 38.3523C13.5383 37.9312 12.247 37.4597 11.0512 36.9488C6.18946 34.88 3.04563 32.16 3.04563 30.0042C3.04563 27.8484 6.18946 25.1144 11.0512 23.054C12.2302 22.5488 13.5214 22.0941 14.8575 21.6674ZM47.6379 33.6814C48.3817 35.5256 49.0133 37.3642 49.5354 39.1495C47.739 39.5902 45.8414 39.9635 43.8765 40.2442C44.5502 39.1915 45.2239 38.1053 45.8554 36.9937C46.487 35.8989 47.0765 34.7818 47.6407 33.6814H47.6379ZM19.7221 33.7375C20.2835 34.8379 20.873 35.9355 21.5186 37.0358C22.1642 38.1306 22.8239 39.2028 23.4976 40.2442C21.5467 39.9579 19.666 39.5986 17.8667 39.1607C18.3719 37.3923 19.0063 35.5621 19.7193 33.7347L19.7221 33.7375ZM50.3018 42.1221C50.6161 43.5059 50.8632 44.8393 51.0148 46.1165C51.6604 51.36 50.8632 55.4358 49.0105 56.5249C48.5979 56.7776 48.0618 56.8842 47.4302 56.8842C44.5895 56.8842 40.3733 54.6189 35.8933 50.4842C37.819 48.4632 39.739 46.1726 41.5635 43.6351C44.6709 43.3038 47.6098 42.7929 50.3018 42.1193V42.1221ZM17.0947 42.1502C19.7895 42.807 22.7256 43.315 25.8162 43.6435C27.6688 46.1838 29.5916 48.4912 31.5284 50.5095C27.0512 54.6723 22.8491 56.9516 19.9916 56.9516C19.374 56.9376 18.8519 56.8112 18.4393 56.581C16.5698 55.5144 15.7586 51.433 16.3902 46.1866C16.5418 44.8954 16.7916 43.5369 17.0947 42.1502ZM29.8947 43.9466C31.1298 44.0028 32.393 44.0421 33.6702 44.0421C34.9614 44.0421 36.2386 44.014 37.4877 43.9466C36.2526 45.5522 34.9754 47.0203 33.7123 48.3396C32.4351 47.0203 31.1579 45.5522 29.8947 43.9466Z" fill="#61DAFB"/>
  </g>
  <defs>
    <clipPath id="clip0_1_254">
      <rect width="67.3684" height="60" fill="white"/>
    </clipPath>
  </defs>
</svg>