<svg xmlns="http://www.w3.org/2000/svg" width="30" height="30" viewBox="0 0 30 30" fill="none">
  <g clip-path="url(#clip0_2_68)">
    <path d="M18.0519 15.8792C20.9094 17.4508 23.3793 16.7918 25.4609 14.7099L27.5985 12.5703C29.4772 10.6939 29.0533 8.52396 27.9479 5.87177L25.4754 8.34594C24.3047 9.51627 22.9715 10.082 21.5826 8.69012L21.5071 8.61759C20.1179 7.22737 20.682 5.89418 21.853 4.72352L24.3265 2.25001C21.6776 1.14528 19.507 0.722645 17.6309 2.59946L15.4897 4.73869C13.4101 6.81858 12.493 9.43122 14.0632 12.2898C13.7882 12.3923 13.5327 12.5426 13.3191 12.7566L3.27768 22.7967C2.33417 23.7406 2.48021 25.4176 3.60274 26.5385L3.65977 26.5958C4.78461 27.719 6.45439 27.8647 7.40252 26.9173L14.1222 20.1969" fill="#E0F1F8"/>
    <path d="M5.82599 28.3648C4.86599 28.3648 3.85819 27.9646 3.07423 27.182L3.01522 27.1223C2.33643 26.4445 1.91841 25.5738 1.84027 24.6725C1.7572 23.7175 2.05983 22.8432 2.69214 22.2109L12.7332 12.1708C12.8104 12.0933 12.8925 12.0204 12.9798 11.9522C11.852 9.27989 12.5196 6.53704 14.9038 4.15286L17.0453 2.0133C19.3369 -0.279886 22.0524 0.404509 24.6449 1.48517C24.8997 1.59165 25.0853 1.81814 25.1387 2.08912C25.1921 2.36011 25.1071 2.64 24.9119 2.8355L22.4384 5.30901C21.1656 6.58187 21.3795 7.31803 22.0929 8.03176L22.1552 8.09176C22.7664 8.7033 23.1966 8.70956 23.4683 8.66242C23.8847 8.58989 24.3627 8.28627 24.8895 7.75978L27.3617 5.28594C27.5569 5.09044 27.8368 5.00506 28.1084 5.05912C28.3794 5.11253 28.6059 5.29814 28.7124 5.55297C29.7937 8.14748 30.4784 10.8643 28.1836 13.1562L26.0466 15.2951C23.5454 17.7966 20.6434 18.2492 17.6526 16.6048C17.2517 16.3846 17.1057 15.8809 17.3262 15.48C17.5464 15.0791 18.0492 14.9324 18.451 15.1536C20.793 16.4413 22.8947 16.1051 24.875 14.1244L27.0123 11.9852C28.1681 10.8307 28.3655 9.55121 27.6287 7.36286L26.0608 8.93176C25.2772 9.71506 24.5223 10.1611 23.7525 10.2949C22.7694 10.4667 21.842 10.1232 20.9961 9.27528L20.9341 9.21594C20.0397 8.32154 18.9132 6.49088 21.2671 4.13836L22.836 2.56945C20.6483 1.83231 19.3708 2.03044 18.2166 3.18528L16.0748 5.32484C13.9797 7.42022 13.5469 9.63 14.7891 11.8912C14.9051 12.1025 14.9232 12.3531 14.8392 12.5789C14.7554 12.8044 14.5774 12.9824 14.3519 13.0665C14.1703 13.1341 14.0203 13.2267 13.9055 13.3421L3.86346 23.3825C3.58324 23.6631 3.45071 24.0702 3.4906 24.5295C3.53544 25.0424 3.78302 25.5478 4.18786 25.9523L4.24687 26.0117C5.04269 26.8062 6.19654 26.9512 6.81665 26.3311L13.5363 19.6111C13.8594 19.2874 14.3842 19.2874 14.7076 19.6111C15.031 19.9342 15.031 20.4587 14.7076 20.7824L7.98764 27.5028C7.40939 28.081 6.63467 28.3645 5.82599 28.3648Z" fill="#454B53"/>
    <path d="M12.6198 18.4081C12.7223 18.6811 12.8733 18.9343 13.0869 19.1492L21.5841 27.7599C22.5277 28.7041 24.2017 28.561 25.3236 27.4385L25.3806 27.3775C26.5045 26.2582 26.6479 24.5835 25.7054 23.6387L17.2088 15.0267C16.9961 14.8111 16.7396 14.6634 16.4687 14.5602L12.6198 18.4081Z" fill="#7BA7C9"/>
    <path d="M23.161 29.2121C22.325 29.2121 21.5572 28.9042 20.9984 28.3454L12.4975 19.7311C12.2146 19.4466 11.9941 19.0988 11.8444 18.6989C11.7303 18.3949 11.8045 18.0521 12.0343 17.8226L15.8832 13.9747C16.114 13.7436 16.4585 13.6701 16.7641 13.7865C17.1739 13.9427 17.5223 14.1643 17.7992 14.4455L26.2952 23.0571C26.9235 23.6871 27.2258 24.5611 27.1431 25.5142C27.0653 26.4155 26.6469 27.2858 25.9652 27.9646L25.9286 28.0048C25.1552 28.7792 24.1533 29.2121 23.161 29.2121ZM13.6546 18.5449C13.6612 18.5519 13.6678 18.5585 13.6747 18.5654L22.174 27.178C22.4852 27.4892 22.8828 27.5558 23.161 27.5558C23.7172 27.5558 24.2918 27.2997 24.7378 26.853L24.7761 26.8114C25.201 26.3878 25.4486 25.8837 25.4928 25.3718C25.5323 24.9129 25.3998 24.5054 25.1189 24.2242L16.6194 15.6086C16.6144 15.604 16.6101 15.5993 16.6055 15.5947L13.6546 18.5449Z" fill="#454B53"/>
    <path d="M14.4923 17.2589C14.2803 17.2589 14.0684 17.1781 13.9068 17.0163L4.68298 7.79309C4.35958 7.47001 4.35958 6.94551 4.68298 6.62177C5.00606 6.29803 5.5309 6.29803 5.8543 6.62177L15.0781 15.845C15.4016 16.168 15.4016 16.6925 15.0781 17.0163C14.9163 17.1778 14.7043 17.2589 14.4923 17.2589Z" fill="#454B53"/>
    <path d="M3.81694 8.66111L6.79189 5.68287L2.45079 2.83122L0.964966 4.31968L3.81694 8.66111Z" fill="#FDE497"/>
    <path d="M3.81694 9.48957C3.78892 9.48957 3.76089 9.48792 3.73287 9.48496C3.48463 9.4599 3.26144 9.32441 3.12463 9.11606L0.272652 4.7743C0.0570478 4.44627 0.101224 4.01177 0.378476 3.73419L1.8643 2.24572C2.14188 1.96748 2.57606 1.92298 2.9054 2.13891L7.2465 4.99056C7.45452 5.12704 7.59001 5.35056 7.6154 5.59814C7.64078 5.84605 7.55342 6.09199 7.37738 6.26803L4.40276 9.24627C4.24683 9.40287 4.03551 9.48957 3.81694 9.48957ZM2.02683 4.42814L3.95012 7.35595L5.48705 5.81704L2.55991 3.89408L2.02683 4.42814Z" fill="#454B53"/>
  </g>
  <defs>
    <clipPath id="clip0_2_68">
      <rect width="30" height="30" fill="white"/>
    </clipPath>
  </defs>
</svg>